<svg width="43" height="32" viewBox="0 0 43 32" fill="none" xmlns="http://www.w3.org/2000/svg">
<ellipse cx="23" cy="23" rx="17.3415" ry="8.55828" fill="#83610A"/>
<circle cx="14.002" cy="20.4642" r="1.21677" fill="#802A2A"/>
<circle cx="32.8262" cy="20.4642" r="1.21677" fill="#802A2A"/>
<path d="M11.9734 15.1065C6.80259 13.8449 -1.67012 9.71785 5.80528 3.30246C4.95581 5.71857 9.90489 13.0104 12.5074 15.1444C13.5849 15.2356 14.8141 15.4328 13.729 15.7238C13.4618 15.7954 13.0323 15.5748 12.5074 15.1444C12.3205 15.1285 12.1383 15.1159 11.9734 15.1065Z" fill="black"/>
<path d="M11.9734 15.1065C6.80259 13.8449 -1.67012 9.71785 5.80528 3.30246C4.78446 6.20594 12.1374 16.1505 13.729 15.7238C15.0022 15.3824 13.0891 15.17 11.9734 15.1065Z" stroke="black"/>
<path d="M31.7483 15.1065C36.9191 13.8449 45.3918 9.71785 37.9164 3.30246C38.7659 5.71857 33.8168 13.0104 31.2143 15.1444C30.1367 15.2356 28.9076 15.4328 29.9927 15.7238C30.2598 15.7954 30.6893 15.5748 31.2143 15.1444C31.4011 15.1285 31.5834 15.1159 31.7483 15.1065Z" fill="black"/>
<path d="M31.7483 15.1065C36.9191 13.8449 45.3918 9.71785 37.9164 3.30246C38.9372 6.20594 31.5842 16.1505 29.9927 15.7238C28.7194 15.3824 30.6326 15.17 31.7483 15.1065Z" stroke="black"/>
<path d="M28.0995 10.7914L25.9523 14.4417H26.3817H27.2406L28.0995 10.7914Z" stroke="black"/>
<path d="M16.4328 11.1595L18.5801 14.8098H18.1506H17.2917L16.4328 11.1595Z" stroke="black"/>
</svg>
